<mxfile host="app.diagrams.net" modified="2023-05-22T19:15:54.882Z" agent="Mozilla/5.0 (Windows NT 10.0; Win64; x64) AppleWebKit/537.36 (KHTML, like Gecko) Chrome/113.0.0.0 Safari/537.36" etag="hoTYtmRCqiZMrKjiDfHO" version="21.3.2" type="device">
  <diagram name="Page-1" id="c4acf3e9-155e-7222-9cf6-157b1a14988f">
    <mxGraphModel dx="1032" dy="2214" grid="1" gridSize="10" guides="1" tooltips="1" connect="1" arrows="1" fold="1" page="1" pageScale="1" pageWidth="850" pageHeight="1100" background="none" math="0" shadow="0">
      <root>
        <mxCell id="0" />
        <mxCell id="1" parent="0" />
        <mxCell id="jpuQcXXQmPODVbKxkRPg-2" value="Order" style="swimlane;fontStyle=1;align=center;verticalAlign=top;childLayout=stackLayout;horizontal=1;startSize=26;horizontalStack=0;resizeParent=1;resizeParentMax=0;resizeLast=0;collapsible=1;marginBottom=0;whiteSpace=wrap;html=1;" vertex="1" parent="1">
          <mxGeometry x="730" y="412" width="260" height="138" as="geometry" />
        </mxCell>
        <mxCell id="jpuQcXXQmPODVbKxkRPg-3" value="- _id: int" style="text;strokeColor=none;fillColor=none;align=left;verticalAlign=top;spacingLeft=4;spacingRight=4;overflow=hidden;rotatable=0;points=[[0,0.5],[1,0.5]];portConstraint=eastwest;whiteSpace=wrap;html=1;" vertex="1" parent="jpuQcXXQmPODVbKxkRPg-2">
          <mxGeometry y="26" width="260" height="26" as="geometry" />
        </mxCell>
        <mxCell id="jpuQcXXQmPODVbKxkRPg-6" value="+ &amp;lt;&amp;lt;get&amp;gt;&amp;gt;Id: int" style="text;strokeColor=none;fillColor=none;align=left;verticalAlign=top;spacingLeft=4;spacingRight=4;overflow=hidden;rotatable=0;points=[[0,0.5],[1,0.5]];portConstraint=eastwest;whiteSpace=wrap;html=1;" vertex="1" parent="jpuQcXXQmPODVbKxkRPg-2">
          <mxGeometry y="52" width="260" height="26" as="geometry" />
        </mxCell>
        <mxCell id="jpuQcXXQmPODVbKxkRPg-4" value="" style="line;strokeWidth=1;fillColor=none;align=left;verticalAlign=middle;spacingTop=-1;spacingLeft=3;spacingRight=3;rotatable=0;labelPosition=right;points=[];portConstraint=eastwest;strokeColor=inherit;" vertex="1" parent="jpuQcXXQmPODVbKxkRPg-2">
          <mxGeometry y="78" width="260" height="8" as="geometry" />
        </mxCell>
        <mxCell id="jpuQcXXQmPODVbKxkRPg-7" value="- _offers: Dictionary&amp;lt;IOffer, uint&amp;gt;" style="text;strokeColor=none;fillColor=none;align=left;verticalAlign=top;spacingLeft=4;spacingRight=4;overflow=hidden;rotatable=0;points=[[0,0.5],[1,0.5]];portConstraint=eastwest;whiteSpace=wrap;html=1;" vertex="1" parent="jpuQcXXQmPODVbKxkRPg-2">
          <mxGeometry y="86" width="260" height="26" as="geometry" />
        </mxCell>
        <mxCell id="jpuQcXXQmPODVbKxkRPg-5" value="+ &amp;lt;&amp;lt;get&amp;gt;&amp;gt;GetList: Dictionary&amp;lt;IOffer, uint&amp;gt;" style="text;strokeColor=none;fillColor=none;align=left;verticalAlign=top;spacingLeft=4;spacingRight=4;overflow=hidden;rotatable=0;points=[[0,0.5],[1,0.5]];portConstraint=eastwest;whiteSpace=wrap;html=1;" vertex="1" parent="jpuQcXXQmPODVbKxkRPg-2">
          <mxGeometry y="112" width="260" height="26" as="geometry" />
        </mxCell>
        <mxCell id="jpuQcXXQmPODVbKxkRPg-8" value="&amp;lt;&amp;lt;interface&amp;gt;&amp;gt;&lt;br&gt;IOffer" style="swimlane;fontStyle=0;childLayout=stackLayout;horizontal=1;startSize=26;fillColor=none;horizontalStack=0;resizeParent=1;resizeParentMax=0;resizeLast=0;collapsible=1;marginBottom=0;whiteSpace=wrap;html=1;" vertex="1" parent="1">
          <mxGeometry x="350" y="421" width="210" height="196" as="geometry" />
        </mxCell>
        <mxCell id="jpuQcXXQmPODVbKxkRPg-9" value="+ &amp;lt;&amp;lt;get&amp;gt;&amp;gt; Name: string" style="text;strokeColor=none;fillColor=none;align=left;verticalAlign=top;spacingLeft=4;spacingRight=4;overflow=hidden;rotatable=0;points=[[0,0.5],[1,0.5]];portConstraint=eastwest;whiteSpace=wrap;html=1;" vertex="1" parent="jpuQcXXQmPODVbKxkRPg-8">
          <mxGeometry y="26" width="210" height="26" as="geometry" />
        </mxCell>
        <mxCell id="jpuQcXXQmPODVbKxkRPg-10" value="+ &amp;lt;&amp;lt;get&amp;gt;&amp;gt;Description: string" style="text;strokeColor=none;fillColor=none;align=left;verticalAlign=top;spacingLeft=4;spacingRight=4;overflow=hidden;rotatable=0;points=[[0,0.5],[1,0.5]];portConstraint=eastwest;whiteSpace=wrap;html=1;" vertex="1" parent="jpuQcXXQmPODVbKxkRPg-8">
          <mxGeometry y="52" width="210" height="26" as="geometry" />
        </mxCell>
        <mxCell id="jpuQcXXQmPODVbKxkRPg-11" value="+ &amp;lt;&amp;lt;get&amp;gt;&amp;gt;OrderType: OfferType" style="text;strokeColor=none;fillColor=none;align=left;verticalAlign=top;spacingLeft=4;spacingRight=4;overflow=hidden;rotatable=0;points=[[0,0.5],[1,0.5]];portConstraint=eastwest;whiteSpace=wrap;html=1;" vertex="1" parent="jpuQcXXQmPODVbKxkRPg-8">
          <mxGeometry y="78" width="210" height="26" as="geometry" />
        </mxCell>
        <mxCell id="jpuQcXXQmPODVbKxkRPg-12" value="+ &amp;lt;&amp;lt;get&amp;gt;&amp;gt;PrepearingTime: TimeOnly" style="text;strokeColor=none;fillColor=none;align=left;verticalAlign=top;spacingLeft=4;spacingRight=4;overflow=hidden;rotatable=0;points=[[0,0.5],[1,0.5]];portConstraint=eastwest;whiteSpace=wrap;html=1;" vertex="1" parent="jpuQcXXQmPODVbKxkRPg-8">
          <mxGeometry y="104" width="210" height="26" as="geometry" />
        </mxCell>
        <mxCell id="jpuQcXXQmPODVbKxkRPg-13" value="+ &amp;lt;&amp;lt;get&amp;gt;&amp;gt;WorkedOnDish: List&amp;lt;IStaff&amp;gt;" style="text;strokeColor=none;fillColor=none;align=left;verticalAlign=top;spacingLeft=4;spacingRight=4;overflow=hidden;rotatable=0;points=[[0,0.5],[1,0.5]];portConstraint=eastwest;whiteSpace=wrap;html=1;" vertex="1" parent="jpuQcXXQmPODVbKxkRPg-8">
          <mxGeometry y="130" width="210" height="40" as="geometry" />
        </mxCell>
        <mxCell id="jpuQcXXQmPODVbKxkRPg-14" value="+ AddCookToDish(staff: IStaff): void" style="text;strokeColor=none;fillColor=none;align=left;verticalAlign=top;spacingLeft=4;spacingRight=4;overflow=hidden;rotatable=0;points=[[0,0.5],[1,0.5]];portConstraint=eastwest;whiteSpace=wrap;html=1;" vertex="1" parent="jpuQcXXQmPODVbKxkRPg-8">
          <mxGeometry y="170" width="210" height="26" as="geometry" />
        </mxCell>
        <mxCell id="jpuQcXXQmPODVbKxkRPg-15" value="IceCream" style="swimlane;fontStyle=1;align=center;verticalAlign=top;childLayout=stackLayout;horizontal=1;startSize=26;horizontalStack=0;resizeParent=1;resizeParentMax=0;resizeLast=0;collapsible=1;marginBottom=0;whiteSpace=wrap;html=1;" vertex="1" parent="1">
          <mxGeometry x="10" y="655" width="180" height="190" as="geometry" />
        </mxCell>
        <mxCell id="jpuQcXXQmPODVbKxkRPg-16" value="- _name: string" style="text;strokeColor=none;fillColor=none;align=left;verticalAlign=top;spacingLeft=4;spacingRight=4;overflow=hidden;rotatable=0;points=[[0,0.5],[1,0.5]];portConstraint=eastwest;whiteSpace=wrap;html=1;" vertex="1" parent="jpuQcXXQmPODVbKxkRPg-15">
          <mxGeometry y="26" width="180" height="26" as="geometry" />
        </mxCell>
        <mxCell id="jpuQcXXQmPODVbKxkRPg-19" value="- _description: string" style="text;strokeColor=none;fillColor=none;align=left;verticalAlign=top;spacingLeft=4;spacingRight=4;overflow=hidden;rotatable=0;points=[[0,0.5],[1,0.5]];portConstraint=eastwest;whiteSpace=wrap;html=1;" vertex="1" parent="jpuQcXXQmPODVbKxkRPg-15">
          <mxGeometry y="52" width="180" height="26" as="geometry" />
        </mxCell>
        <mxCell id="jpuQcXXQmPODVbKxkRPg-20" value="- _prepearingTime: TimeOnly" style="text;strokeColor=none;fillColor=none;align=left;verticalAlign=top;spacingLeft=4;spacingRight=4;overflow=hidden;rotatable=0;points=[[0,0.5],[1,0.5]];portConstraint=eastwest;whiteSpace=wrap;html=1;" vertex="1" parent="jpuQcXXQmPODVbKxkRPg-15">
          <mxGeometry y="78" width="180" height="26" as="geometry" />
        </mxCell>
        <mxCell id="jpuQcXXQmPODVbKxkRPg-21" value="- _workedOnDish: List&amp;lt;Istaff&amp;gt;" style="text;strokeColor=none;fillColor=none;align=left;verticalAlign=top;spacingLeft=4;spacingRight=4;overflow=hidden;rotatable=0;points=[[0,0.5],[1,0.5]];portConstraint=eastwest;whiteSpace=wrap;html=1;" vertex="1" parent="jpuQcXXQmPODVbKxkRPg-15">
          <mxGeometry y="104" width="180" height="26" as="geometry" />
        </mxCell>
        <mxCell id="jpuQcXXQmPODVbKxkRPg-17" value="" style="line;strokeWidth=1;fillColor=none;align=left;verticalAlign=middle;spacingTop=-1;spacingLeft=3;spacingRight=3;rotatable=0;labelPosition=right;points=[];portConstraint=eastwest;strokeColor=inherit;" vertex="1" parent="jpuQcXXQmPODVbKxkRPg-15">
          <mxGeometry y="130" width="180" height="8" as="geometry" />
        </mxCell>
        <mxCell id="jpuQcXXQmPODVbKxkRPg-23" value="+&amp;lt;&amp;lt;create&amp;gt;&amp;gt; IceCream(name: string, preparationTime: TimeOnly, description: string)" style="text;strokeColor=none;fillColor=none;align=left;verticalAlign=top;spacingLeft=4;spacingRight=4;overflow=hidden;rotatable=0;points=[[0,0.5],[1,0.5]];portConstraint=eastwest;whiteSpace=wrap;html=1;" vertex="1" parent="jpuQcXXQmPODVbKxkRPg-15">
          <mxGeometry y="138" width="180" height="52" as="geometry" />
        </mxCell>
        <mxCell id="jpuQcXXQmPODVbKxkRPg-22" value="" style="endArrow=block;dashed=1;endFill=0;endSize=12;html=1;rounded=0;" edge="1" parent="1" source="jpuQcXXQmPODVbKxkRPg-15" target="jpuQcXXQmPODVbKxkRPg-8">
          <mxGeometry width="160" relative="1" as="geometry">
            <mxPoint x="120" y="900" as="sourcePoint" />
            <mxPoint x="280" y="900" as="targetPoint" />
          </mxGeometry>
        </mxCell>
        <mxCell id="jpuQcXXQmPODVbKxkRPg-24" value="Juice" style="swimlane;fontStyle=1;align=center;verticalAlign=top;childLayout=stackLayout;horizontal=1;startSize=26;horizontalStack=0;resizeParent=1;resizeParentMax=0;resizeLast=0;collapsible=1;marginBottom=0;whiteSpace=wrap;html=1;" vertex="1" parent="1">
          <mxGeometry x="205" y="670" width="180" height="190" as="geometry" />
        </mxCell>
        <mxCell id="jpuQcXXQmPODVbKxkRPg-25" value="- _name: string" style="text;strokeColor=none;fillColor=none;align=left;verticalAlign=top;spacingLeft=4;spacingRight=4;overflow=hidden;rotatable=0;points=[[0,0.5],[1,0.5]];portConstraint=eastwest;whiteSpace=wrap;html=1;" vertex="1" parent="jpuQcXXQmPODVbKxkRPg-24">
          <mxGeometry y="26" width="180" height="26" as="geometry" />
        </mxCell>
        <mxCell id="jpuQcXXQmPODVbKxkRPg-26" value="- _description: string" style="text;strokeColor=none;fillColor=none;align=left;verticalAlign=top;spacingLeft=4;spacingRight=4;overflow=hidden;rotatable=0;points=[[0,0.5],[1,0.5]];portConstraint=eastwest;whiteSpace=wrap;html=1;" vertex="1" parent="jpuQcXXQmPODVbKxkRPg-24">
          <mxGeometry y="52" width="180" height="26" as="geometry" />
        </mxCell>
        <mxCell id="jpuQcXXQmPODVbKxkRPg-27" value="- _prepearingTime: TimeOnly" style="text;strokeColor=none;fillColor=none;align=left;verticalAlign=top;spacingLeft=4;spacingRight=4;overflow=hidden;rotatable=0;points=[[0,0.5],[1,0.5]];portConstraint=eastwest;whiteSpace=wrap;html=1;" vertex="1" parent="jpuQcXXQmPODVbKxkRPg-24">
          <mxGeometry y="78" width="180" height="26" as="geometry" />
        </mxCell>
        <mxCell id="jpuQcXXQmPODVbKxkRPg-28" value="- _workedOnDish: List&amp;lt;Istaff&amp;gt;" style="text;strokeColor=none;fillColor=none;align=left;verticalAlign=top;spacingLeft=4;spacingRight=4;overflow=hidden;rotatable=0;points=[[0,0.5],[1,0.5]];portConstraint=eastwest;whiteSpace=wrap;html=1;" vertex="1" parent="jpuQcXXQmPODVbKxkRPg-24">
          <mxGeometry y="104" width="180" height="26" as="geometry" />
        </mxCell>
        <mxCell id="jpuQcXXQmPODVbKxkRPg-29" value="" style="line;strokeWidth=1;fillColor=none;align=left;verticalAlign=middle;spacingTop=-1;spacingLeft=3;spacingRight=3;rotatable=0;labelPosition=right;points=[];portConstraint=eastwest;strokeColor=inherit;" vertex="1" parent="jpuQcXXQmPODVbKxkRPg-24">
          <mxGeometry y="130" width="180" height="8" as="geometry" />
        </mxCell>
        <mxCell id="jpuQcXXQmPODVbKxkRPg-30" value="+&amp;lt;&amp;lt;create&amp;gt;&amp;gt; Juice(name: string, preparationTime: TimeOnly, description: string)" style="text;strokeColor=none;fillColor=none;align=left;verticalAlign=top;spacingLeft=4;spacingRight=4;overflow=hidden;rotatable=0;points=[[0,0.5],[1,0.5]];portConstraint=eastwest;whiteSpace=wrap;html=1;" vertex="1" parent="jpuQcXXQmPODVbKxkRPg-24">
          <mxGeometry y="138" width="180" height="52" as="geometry" />
        </mxCell>
        <mxCell id="jpuQcXXQmPODVbKxkRPg-31" value="Pizza" style="swimlane;fontStyle=1;align=center;verticalAlign=top;childLayout=stackLayout;horizontal=1;startSize=26;horizontalStack=0;resizeParent=1;resizeParentMax=0;resizeLast=0;collapsible=1;marginBottom=0;whiteSpace=wrap;html=1;" vertex="1" parent="1">
          <mxGeometry x="400" y="655" width="180" height="190" as="geometry" />
        </mxCell>
        <mxCell id="jpuQcXXQmPODVbKxkRPg-32" value="- _name: string" style="text;strokeColor=none;fillColor=none;align=left;verticalAlign=top;spacingLeft=4;spacingRight=4;overflow=hidden;rotatable=0;points=[[0,0.5],[1,0.5]];portConstraint=eastwest;whiteSpace=wrap;html=1;" vertex="1" parent="jpuQcXXQmPODVbKxkRPg-31">
          <mxGeometry y="26" width="180" height="26" as="geometry" />
        </mxCell>
        <mxCell id="jpuQcXXQmPODVbKxkRPg-33" value="- _description: string" style="text;strokeColor=none;fillColor=none;align=left;verticalAlign=top;spacingLeft=4;spacingRight=4;overflow=hidden;rotatable=0;points=[[0,0.5],[1,0.5]];portConstraint=eastwest;whiteSpace=wrap;html=1;" vertex="1" parent="jpuQcXXQmPODVbKxkRPg-31">
          <mxGeometry y="52" width="180" height="26" as="geometry" />
        </mxCell>
        <mxCell id="jpuQcXXQmPODVbKxkRPg-34" value="- _prepearingTime: TimeOnly" style="text;strokeColor=none;fillColor=none;align=left;verticalAlign=top;spacingLeft=4;spacingRight=4;overflow=hidden;rotatable=0;points=[[0,0.5],[1,0.5]];portConstraint=eastwest;whiteSpace=wrap;html=1;" vertex="1" parent="jpuQcXXQmPODVbKxkRPg-31">
          <mxGeometry y="78" width="180" height="26" as="geometry" />
        </mxCell>
        <mxCell id="jpuQcXXQmPODVbKxkRPg-35" value="- _workedOnDish: List&amp;lt;Istaff&amp;gt;" style="text;strokeColor=none;fillColor=none;align=left;verticalAlign=top;spacingLeft=4;spacingRight=4;overflow=hidden;rotatable=0;points=[[0,0.5],[1,0.5]];portConstraint=eastwest;whiteSpace=wrap;html=1;" vertex="1" parent="jpuQcXXQmPODVbKxkRPg-31">
          <mxGeometry y="104" width="180" height="26" as="geometry" />
        </mxCell>
        <mxCell id="jpuQcXXQmPODVbKxkRPg-36" value="" style="line;strokeWidth=1;fillColor=none;align=left;verticalAlign=middle;spacingTop=-1;spacingLeft=3;spacingRight=3;rotatable=0;labelPosition=right;points=[];portConstraint=eastwest;strokeColor=inherit;" vertex="1" parent="jpuQcXXQmPODVbKxkRPg-31">
          <mxGeometry y="130" width="180" height="8" as="geometry" />
        </mxCell>
        <mxCell id="jpuQcXXQmPODVbKxkRPg-37" value="+&amp;lt;&amp;lt;create&amp;gt;&amp;gt; Juice(name: string, preparationTime: TimeOnly, description: string)" style="text;strokeColor=none;fillColor=none;align=left;verticalAlign=top;spacingLeft=4;spacingRight=4;overflow=hidden;rotatable=0;points=[[0,0.5],[1,0.5]];portConstraint=eastwest;whiteSpace=wrap;html=1;" vertex="1" parent="jpuQcXXQmPODVbKxkRPg-31">
          <mxGeometry y="138" width="180" height="52" as="geometry" />
        </mxCell>
        <mxCell id="jpuQcXXQmPODVbKxkRPg-38" value="Pizza" style="shape=umlFrame;whiteSpace=wrap;html=1;pointerEvents=0;" vertex="1" parent="1">
          <mxGeometry x="590" y="660" width="310" height="180" as="geometry" />
        </mxCell>
        <mxCell id="jpuQcXXQmPODVbKxkRPg-41" value="&lt;p style=&quot;border-color: var(--border-color); margin: 4px 0px 0px;&quot;&gt;&lt;span style=&quot;border-color: var(--border-color);&quot;&gt;&amp;lt;&amp;lt;enumeration&amp;gt;&amp;gt;&lt;/span&gt;&lt;/p&gt;&lt;p style=&quot;border-color: var(--border-color); margin: 4px 0px 0px;&quot;&gt;&lt;span style=&quot;border-color: var(--border-color);&quot;&gt;&lt;b&gt;PrepearingStage&lt;/b&gt;&lt;/span&gt;&lt;/p&gt;" style="swimlane;fontStyle=0;childLayout=stackLayout;horizontal=1;startSize=50;fillColor=none;horizontalStack=0;resizeParent=1;resizeParentMax=0;resizeLast=0;collapsible=1;marginBottom=0;whiteSpace=wrap;html=1;" vertex="1" parent="1">
          <mxGeometry x="600" y="696" width="140" height="128" as="geometry" />
        </mxCell>
        <mxCell id="jpuQcXXQmPODVbKxkRPg-42" value="PizzaBase" style="text;strokeColor=none;fillColor=none;align=left;verticalAlign=top;spacingLeft=4;spacingRight=4;overflow=hidden;rotatable=0;points=[[0,0.5],[1,0.5]];portConstraint=eastwest;whiteSpace=wrap;html=1;" vertex="1" parent="jpuQcXXQmPODVbKxkRPg-41">
          <mxGeometry y="50" width="140" height="26" as="geometry" />
        </mxCell>
        <mxCell id="jpuQcXXQmPODVbKxkRPg-43" value="Filling" style="text;strokeColor=none;fillColor=none;align=left;verticalAlign=top;spacingLeft=4;spacingRight=4;overflow=hidden;rotatable=0;points=[[0,0.5],[1,0.5]];portConstraint=eastwest;whiteSpace=wrap;html=1;" vertex="1" parent="jpuQcXXQmPODVbKxkRPg-41">
          <mxGeometry y="76" width="140" height="26" as="geometry" />
        </mxCell>
        <mxCell id="jpuQcXXQmPODVbKxkRPg-44" value="Baking" style="text;strokeColor=none;fillColor=none;align=left;verticalAlign=top;spacingLeft=4;spacingRight=4;overflow=hidden;rotatable=0;points=[[0,0.5],[1,0.5]];portConstraint=eastwest;whiteSpace=wrap;html=1;" vertex="1" parent="jpuQcXXQmPODVbKxkRPg-41">
          <mxGeometry y="102" width="140" height="26" as="geometry" />
        </mxCell>
        <mxCell id="jpuQcXXQmPODVbKxkRPg-45" value="" style="endArrow=block;dashed=1;endFill=0;endSize=12;html=1;rounded=0;" edge="1" parent="1" source="jpuQcXXQmPODVbKxkRPg-24" target="jpuQcXXQmPODVbKxkRPg-8">
          <mxGeometry width="160" relative="1" as="geometry">
            <mxPoint x="350" y="660" as="sourcePoint" />
            <mxPoint x="510" y="660" as="targetPoint" />
          </mxGeometry>
        </mxCell>
        <mxCell id="jpuQcXXQmPODVbKxkRPg-46" value="" style="endArrow=block;dashed=1;endFill=0;endSize=12;html=1;rounded=0;" edge="1" parent="1" source="jpuQcXXQmPODVbKxkRPg-31" target="jpuQcXXQmPODVbKxkRPg-8">
          <mxGeometry width="160" relative="1" as="geometry">
            <mxPoint x="440" y="1010" as="sourcePoint" />
            <mxPoint x="600" y="1010" as="targetPoint" />
          </mxGeometry>
        </mxCell>
        <mxCell id="jpuQcXXQmPODVbKxkRPg-47" value="&lt;p style=&quot;border-color: var(--border-color); margin: 4px 0px 0px;&quot;&gt;&lt;span style=&quot;border-color: var(--border-color);&quot;&gt;&amp;lt;&amp;lt;enumeration&amp;gt;&amp;gt;&lt;/span&gt;&lt;/p&gt;&lt;p style=&quot;border-color: var(--border-color); margin: 4px 0px 0px;&quot;&gt;&lt;b&gt;PizzaSize&lt;/b&gt;&lt;br&gt;&lt;/p&gt;" style="swimlane;fontStyle=0;childLayout=stackLayout;horizontal=1;startSize=50;fillColor=none;horizontalStack=0;resizeParent=1;resizeParentMax=0;resizeLast=0;collapsible=1;marginBottom=0;whiteSpace=wrap;html=1;" vertex="1" parent="1">
          <mxGeometry x="750" y="670" width="140" height="154" as="geometry" />
        </mxCell>
        <mxCell id="jpuQcXXQmPODVbKxkRPg-48" value="Small" style="text;strokeColor=none;fillColor=none;align=left;verticalAlign=top;spacingLeft=4;spacingRight=4;overflow=hidden;rotatable=0;points=[[0,0.5],[1,0.5]];portConstraint=eastwest;whiteSpace=wrap;html=1;" vertex="1" parent="jpuQcXXQmPODVbKxkRPg-47">
          <mxGeometry y="50" width="140" height="26" as="geometry" />
        </mxCell>
        <mxCell id="jpuQcXXQmPODVbKxkRPg-49" value="Medium" style="text;strokeColor=none;fillColor=none;align=left;verticalAlign=top;spacingLeft=4;spacingRight=4;overflow=hidden;rotatable=0;points=[[0,0.5],[1,0.5]];portConstraint=eastwest;whiteSpace=wrap;html=1;" vertex="1" parent="jpuQcXXQmPODVbKxkRPg-47">
          <mxGeometry y="76" width="140" height="26" as="geometry" />
        </mxCell>
        <mxCell id="jpuQcXXQmPODVbKxkRPg-50" value="Large" style="text;strokeColor=none;fillColor=none;align=left;verticalAlign=top;spacingLeft=4;spacingRight=4;overflow=hidden;rotatable=0;points=[[0,0.5],[1,0.5]];portConstraint=eastwest;whiteSpace=wrap;html=1;" vertex="1" parent="jpuQcXXQmPODVbKxkRPg-47">
          <mxGeometry y="102" width="140" height="26" as="geometry" />
        </mxCell>
        <mxCell id="jpuQcXXQmPODVbKxkRPg-51" value="ExtraLarge" style="text;strokeColor=none;fillColor=none;align=left;verticalAlign=top;spacingLeft=4;spacingRight=4;overflow=hidden;rotatable=0;points=[[0,0.5],[1,0.5]];portConstraint=eastwest;whiteSpace=wrap;html=1;" vertex="1" parent="jpuQcXXQmPODVbKxkRPg-47">
          <mxGeometry y="128" width="140" height="26" as="geometry" />
        </mxCell>
        <mxCell id="jpuQcXXQmPODVbKxkRPg-52" value="Menu" style="swimlane;fontStyle=1;align=center;verticalAlign=top;childLayout=stackLayout;horizontal=1;startSize=26;horizontalStack=0;resizeParent=1;resizeParentMax=0;resizeLast=0;collapsible=1;marginBottom=0;whiteSpace=wrap;html=1;" vertex="1" parent="1">
          <mxGeometry x="100" y="226" width="200" height="160" as="geometry" />
        </mxCell>
        <mxCell id="jpuQcXXQmPODVbKxkRPg-53" value="- _menuOffer: List&amp;lt;IOffer&amp;gt;" style="text;strokeColor=none;fillColor=none;align=left;verticalAlign=top;spacingLeft=4;spacingRight=4;overflow=hidden;rotatable=0;points=[[0,0.5],[1,0.5]];portConstraint=eastwest;whiteSpace=wrap;html=1;" vertex="1" parent="jpuQcXXQmPODVbKxkRPg-52">
          <mxGeometry y="26" width="200" height="26" as="geometry" />
        </mxCell>
        <mxCell id="jpuQcXXQmPODVbKxkRPg-54" value="+&amp;lt;&amp;lt;get&amp;gt;&amp;gt; MenuOffer: List&amp;lt;IOffer&amp;gt;" style="text;strokeColor=none;fillColor=none;align=left;verticalAlign=top;spacingLeft=4;spacingRight=4;overflow=hidden;rotatable=0;points=[[0,0.5],[1,0.5]];portConstraint=eastwest;whiteSpace=wrap;html=1;" vertex="1" parent="jpuQcXXQmPODVbKxkRPg-52">
          <mxGeometry y="52" width="200" height="26" as="geometry" />
        </mxCell>
        <mxCell id="jpuQcXXQmPODVbKxkRPg-57" value="" style="line;strokeWidth=1;fillColor=none;align=left;verticalAlign=middle;spacingTop=-1;spacingLeft=3;spacingRight=3;rotatable=0;labelPosition=right;points=[];portConstraint=eastwest;strokeColor=inherit;" vertex="1" parent="jpuQcXXQmPODVbKxkRPg-52">
          <mxGeometry y="78" width="200" height="8" as="geometry" />
        </mxCell>
        <mxCell id="jpuQcXXQmPODVbKxkRPg-58" value="+&amp;lt;&amp;lt;create&amp;gt;&amp;gt; Menu(menuOffer: IEnumerable&amp;lt;IOffer&amp;gt;)" style="text;strokeColor=none;fillColor=none;align=left;verticalAlign=top;spacingLeft=4;spacingRight=4;overflow=hidden;rotatable=0;points=[[0,0.5],[1,0.5]];portConstraint=eastwest;whiteSpace=wrap;html=1;" vertex="1" parent="jpuQcXXQmPODVbKxkRPg-52">
          <mxGeometry y="86" width="200" height="44" as="geometry" />
        </mxCell>
        <mxCell id="jpuQcXXQmPODVbKxkRPg-59" value="+&amp;lt;&amp;lt;create&amp;gt;&amp;gt; Menu()" style="text;strokeColor=none;fillColor=none;align=left;verticalAlign=top;spacingLeft=4;spacingRight=4;overflow=hidden;rotatable=0;points=[[0,0.5],[1,0.5]];portConstraint=eastwest;whiteSpace=wrap;html=1;" vertex="1" parent="jpuQcXXQmPODVbKxkRPg-52">
          <mxGeometry y="130" width="200" height="30" as="geometry" />
        </mxCell>
        <mxCell id="jpuQcXXQmPODVbKxkRPg-69" value="Storage" style="swimlane;fontStyle=1;align=center;verticalAlign=top;childLayout=stackLayout;horizontal=1;startSize=26;horizontalStack=0;resizeParent=1;resizeParentMax=0;resizeLast=0;collapsible=1;marginBottom=0;whiteSpace=wrap;html=1;" vertex="1" parent="1">
          <mxGeometry x="1300" y="290" width="460" height="200" as="geometry" />
        </mxCell>
        <mxCell id="jpuQcXXQmPODVbKxkRPg-70" value="- _prepearedOffers_id: Dictionary&amp;lt;Order, Dictionary&amp;lt;IOffer, uint&amp;gt;&amp;gt;" style="text;strokeColor=none;fillColor=none;align=left;verticalAlign=top;spacingLeft=4;spacingRight=4;overflow=hidden;rotatable=0;points=[[0,0.5],[1,0.5]];portConstraint=eastwest;whiteSpace=wrap;html=1;" vertex="1" parent="jpuQcXXQmPODVbKxkRPg-69">
          <mxGeometry y="26" width="460" height="26" as="geometry" />
        </mxCell>
        <mxCell id="jpuQcXXQmPODVbKxkRPg-71" value="+&amp;lt;&amp;lt;event&amp;gt;&amp;gt; OrderCompleted: OrderComplete" style="text;strokeColor=none;fillColor=none;align=left;verticalAlign=top;spacingLeft=4;spacingRight=4;overflow=hidden;rotatable=0;points=[[0,0.5],[1,0.5]];portConstraint=eastwest;whiteSpace=wrap;html=1;" vertex="1" parent="jpuQcXXQmPODVbKxkRPg-69">
          <mxGeometry y="52" width="460" height="26" as="geometry" />
        </mxCell>
        <mxCell id="jpuQcXXQmPODVbKxkRPg-72" value="" style="line;strokeWidth=1;fillColor=none;align=left;verticalAlign=middle;spacingTop=-1;spacingLeft=3;spacingRight=3;rotatable=0;labelPosition=right;points=[];portConstraint=eastwest;strokeColor=inherit;" vertex="1" parent="jpuQcXXQmPODVbKxkRPg-69">
          <mxGeometry y="78" width="460" height="8" as="geometry" />
        </mxCell>
        <mxCell id="jpuQcXXQmPODVbKxkRPg-76" value="+&amp;lt;&amp;lt;delegate&amp;gt;&amp;gt; OrderComplete(order: Order): void" style="text;strokeColor=none;fillColor=none;align=left;verticalAlign=top;spacingLeft=4;spacingRight=4;overflow=hidden;rotatable=0;points=[[0,0.5],[1,0.5]];portConstraint=eastwest;whiteSpace=wrap;html=1;" vertex="1" parent="jpuQcXXQmPODVbKxkRPg-69">
          <mxGeometry y="86" width="460" height="26" as="geometry" />
        </mxCell>
        <mxCell id="jpuQcXXQmPODVbKxkRPg-73" value="+ AddToStorage(orderId: Order, offer: IOffer): void" style="text;strokeColor=none;fillColor=none;align=left;verticalAlign=top;spacingLeft=4;spacingRight=4;overflow=hidden;rotatable=0;points=[[0,0.5],[1,0.5]];portConstraint=eastwest;whiteSpace=wrap;html=1;" vertex="1" parent="jpuQcXXQmPODVbKxkRPg-69">
          <mxGeometry y="112" width="460" height="28" as="geometry" />
        </mxCell>
        <mxCell id="jpuQcXXQmPODVbKxkRPg-74" value="- IssueOrder(order: Order): void" style="text;strokeColor=none;fillColor=none;align=left;verticalAlign=top;spacingLeft=4;spacingRight=4;overflow=hidden;rotatable=0;points=[[0,0.5],[1,0.5]];portConstraint=eastwest;whiteSpace=wrap;html=1;" vertex="1" parent="jpuQcXXQmPODVbKxkRPg-69">
          <mxGeometry y="140" width="460" height="30" as="geometry" />
        </mxCell>
        <mxCell id="jpuQcXXQmPODVbKxkRPg-77" value="- IsOrderComplete(order: Order): bool" style="text;strokeColor=none;fillColor=none;align=left;verticalAlign=top;spacingLeft=4;spacingRight=4;overflow=hidden;rotatable=0;points=[[0,0.5],[1,0.5]];portConstraint=eastwest;whiteSpace=wrap;html=1;" vertex="1" parent="jpuQcXXQmPODVbKxkRPg-69">
          <mxGeometry y="170" width="460" height="30" as="geometry" />
        </mxCell>
        <mxCell id="jpuQcXXQmPODVbKxkRPg-78" value="Kitchen" style="swimlane;fontStyle=1;align=center;verticalAlign=top;childLayout=stackLayout;horizontal=1;startSize=26;horizontalStack=0;resizeParent=1;resizeParentMax=0;resizeLast=0;collapsible=1;marginBottom=0;whiteSpace=wrap;html=1;" vertex="1" parent="1">
          <mxGeometry x="950" y="660" width="460" height="226" as="geometry" />
        </mxCell>
        <mxCell id="jpuQcXXQmPODVbKxkRPg-169" value="1" style="endArrow=open;html=1;endSize=12;startArrow=diamondThin;startSize=14;startFill=1;edgeStyle=orthogonalEdgeStyle;align=left;verticalAlign=bottom;rounded=0;" edge="1" parent="jpuQcXXQmPODVbKxkRPg-78" target="jpuQcXXQmPODVbKxkRPg-96">
          <mxGeometry x="-0.9494" y="10" relative="1" as="geometry">
            <mxPoint x="170" as="sourcePoint" />
            <mxPoint x="330" as="targetPoint" />
            <Array as="points">
              <mxPoint x="170" y="-120" />
              <mxPoint x="70" y="-120" />
              <mxPoint x="70" y="-610" />
            </Array>
            <mxPoint as="offset" />
          </mxGeometry>
        </mxCell>
        <mxCell id="jpuQcXXQmPODVbKxkRPg-79" value="- _manager: Manager" style="text;strokeColor=none;fillColor=none;align=left;verticalAlign=top;spacingLeft=4;spacingRight=4;overflow=hidden;rotatable=0;points=[[0,0.5],[1,0.5]];portConstraint=eastwest;whiteSpace=wrap;html=1;" vertex="1" parent="jpuQcXXQmPODVbKxkRPg-78">
          <mxGeometry y="26" width="460" height="26" as="geometry" />
        </mxCell>
        <mxCell id="jpuQcXXQmPODVbKxkRPg-86" value="- _staff: List&amp;lt;IStaff&amp;gt;" style="text;strokeColor=none;fillColor=none;align=left;verticalAlign=top;spacingLeft=4;spacingRight=4;overflow=hidden;rotatable=0;points=[[0,0.5],[1,0.5]];portConstraint=eastwest;whiteSpace=wrap;html=1;" vertex="1" parent="jpuQcXXQmPODVbKxkRPg-78">
          <mxGeometry y="52" width="460" height="26" as="geometry" />
        </mxCell>
        <mxCell id="jpuQcXXQmPODVbKxkRPg-87" value="- _storage: Storage" style="text;strokeColor=none;fillColor=none;align=left;verticalAlign=top;spacingLeft=4;spacingRight=4;overflow=hidden;rotatable=0;points=[[0,0.5],[1,0.5]];portConstraint=eastwest;whiteSpace=wrap;html=1;" vertex="1" parent="jpuQcXXQmPODVbKxkRPg-78">
          <mxGeometry y="78" width="460" height="26" as="geometry" />
        </mxCell>
        <mxCell id="jpuQcXXQmPODVbKxkRPg-80" value="+&amp;lt;&amp;lt;event&amp;gt;&amp;gt; ReadyOrder: OrderComplete" style="text;strokeColor=none;fillColor=none;align=left;verticalAlign=top;spacingLeft=4;spacingRight=4;overflow=hidden;rotatable=0;points=[[0,0.5],[1,0.5]];portConstraint=eastwest;whiteSpace=wrap;html=1;" vertex="1" parent="jpuQcXXQmPODVbKxkRPg-78">
          <mxGeometry y="104" width="460" height="26" as="geometry" />
        </mxCell>
        <mxCell id="jpuQcXXQmPODVbKxkRPg-81" value="" style="line;strokeWidth=1;fillColor=none;align=left;verticalAlign=middle;spacingTop=-1;spacingLeft=3;spacingRight=3;rotatable=0;labelPosition=right;points=[];portConstraint=eastwest;strokeColor=inherit;" vertex="1" parent="jpuQcXXQmPODVbKxkRPg-78">
          <mxGeometry y="130" width="460" height="8" as="geometry" />
        </mxCell>
        <mxCell id="jpuQcXXQmPODVbKxkRPg-83" value="+ Order(order: Order): void" style="text;strokeColor=none;fillColor=none;align=left;verticalAlign=top;spacingLeft=4;spacingRight=4;overflow=hidden;rotatable=0;points=[[0,0.5],[1,0.5]];portConstraint=eastwest;whiteSpace=wrap;html=1;" vertex="1" parent="jpuQcXXQmPODVbKxkRPg-78">
          <mxGeometry y="138" width="460" height="28" as="geometry" />
        </mxCell>
        <mxCell id="jpuQcXXQmPODVbKxkRPg-84" value="+ StartWork(): void" style="text;strokeColor=none;fillColor=none;align=left;verticalAlign=top;spacingLeft=4;spacingRight=4;overflow=hidden;rotatable=0;points=[[0,0.5],[1,0.5]];portConstraint=eastwest;whiteSpace=wrap;html=1;" vertex="1" parent="jpuQcXXQmPODVbKxkRPg-78">
          <mxGeometry y="166" width="460" height="30" as="geometry" />
        </mxCell>
        <mxCell id="jpuQcXXQmPODVbKxkRPg-85" value="- InvokeIvent(order: Order): bool" style="text;strokeColor=none;fillColor=none;align=left;verticalAlign=top;spacingLeft=4;spacingRight=4;overflow=hidden;rotatable=0;points=[[0,0.5],[1,0.5]];portConstraint=eastwest;whiteSpace=wrap;html=1;" vertex="1" parent="jpuQcXXQmPODVbKxkRPg-78">
          <mxGeometry y="196" width="460" height="30" as="geometry" />
        </mxCell>
        <mxCell id="jpuQcXXQmPODVbKxkRPg-88" value="&amp;lt;&amp;lt;interface&amp;gt;&amp;gt;&lt;br&gt;IPerson" style="swimlane;fontStyle=0;childLayout=stackLayout;horizontal=1;startSize=26;fillColor=none;horizontalStack=0;resizeParent=1;resizeParentMax=0;resizeLast=0;collapsible=1;marginBottom=0;whiteSpace=wrap;html=1;" vertex="1" parent="1">
          <mxGeometry x="800" y="158" width="210" height="52" as="geometry" />
        </mxCell>
        <mxCell id="jpuQcXXQmPODVbKxkRPg-89" value="+ &amp;lt;&amp;lt;get&amp;gt;&amp;gt; Name: string" style="text;strokeColor=none;fillColor=none;align=left;verticalAlign=top;spacingLeft=4;spacingRight=4;overflow=hidden;rotatable=0;points=[[0,0.5],[1,0.5]];portConstraint=eastwest;whiteSpace=wrap;html=1;" vertex="1" parent="jpuQcXXQmPODVbKxkRPg-88">
          <mxGeometry y="26" width="210" height="26" as="geometry" />
        </mxCell>
        <mxCell id="jpuQcXXQmPODVbKxkRPg-96" value="&amp;lt;&amp;lt;interface&amp;gt;&amp;gt;&lt;br&gt;IStaff" style="swimlane;fontStyle=0;childLayout=stackLayout;horizontal=1;startSize=26;fillColor=none;horizontalStack=0;resizeParent=1;resizeParentMax=0;resizeLast=0;collapsible=1;marginBottom=0;whiteSpace=wrap;html=1;" vertex="1" parent="1">
          <mxGeometry x="630" y="-60" width="210" height="174" as="geometry" />
        </mxCell>
        <mxCell id="jpuQcXXQmPODVbKxkRPg-109" value="+ &amp;lt;&amp;lt;delegate&amp;gt;&amp;gt;StaffNotify(staff: IStaff, process: OfferType): void" style="text;strokeColor=none;fillColor=none;align=left;verticalAlign=top;spacingLeft=4;spacingRight=4;overflow=hidden;rotatable=0;points=[[0,0.5],[1,0.5]];portConstraint=eastwest;whiteSpace=wrap;html=1;" vertex="1" parent="jpuQcXXQmPODVbKxkRPg-96">
          <mxGeometry y="26" width="210" height="34" as="geometry" />
        </mxCell>
        <mxCell id="jpuQcXXQmPODVbKxkRPg-97" value="+ &amp;lt;&amp;lt;get&amp;gt;&amp;gt; Name: string" style="text;strokeColor=none;fillColor=none;align=left;verticalAlign=top;spacingLeft=4;spacingRight=4;overflow=hidden;rotatable=0;points=[[0,0.5],[1,0.5]];portConstraint=eastwest;whiteSpace=wrap;html=1;" vertex="1" parent="jpuQcXXQmPODVbKxkRPg-96">
          <mxGeometry y="60" width="210" height="26" as="geometry" />
        </mxCell>
        <mxCell id="jpuQcXXQmPODVbKxkRPg-98" value="+ &amp;lt;&amp;lt;get&amp;gt;&amp;gt;cookProcess: OfferType" style="text;strokeColor=none;fillColor=none;align=left;verticalAlign=top;spacingLeft=4;spacingRight=4;overflow=hidden;rotatable=0;points=[[0,0.5],[1,0.5]];portConstraint=eastwest;whiteSpace=wrap;html=1;" vertex="1" parent="jpuQcXXQmPODVbKxkRPg-96">
          <mxGeometry y="86" width="210" height="26" as="geometry" />
        </mxCell>
        <mxCell id="jpuQcXXQmPODVbKxkRPg-99" value="+ &amp;lt;&amp;lt;event&amp;gt;&amp;gt;StaffNotify: StaffNotify" style="text;strokeColor=none;fillColor=none;align=left;verticalAlign=top;spacingLeft=4;spacingRight=4;overflow=hidden;rotatable=0;points=[[0,0.5],[1,0.5]];portConstraint=eastwest;whiteSpace=wrap;html=1;" vertex="1" parent="jpuQcXXQmPODVbKxkRPg-96">
          <mxGeometry y="112" width="210" height="26" as="geometry" />
        </mxCell>
        <mxCell id="jpuQcXXQmPODVbKxkRPg-100" value="+ SetDishForWork(orderId: Order, offer: IOffer): void" style="text;strokeColor=none;fillColor=none;align=left;verticalAlign=top;spacingLeft=4;spacingRight=4;overflow=hidden;rotatable=0;points=[[0,0.5],[1,0.5]];portConstraint=eastwest;whiteSpace=wrap;html=1;" vertex="1" parent="jpuQcXXQmPODVbKxkRPg-96">
          <mxGeometry y="138" width="210" height="36" as="geometry" />
        </mxCell>
        <mxCell id="jpuQcXXQmPODVbKxkRPg-101" value="" style="endArrow=block;dashed=1;endFill=0;endSize=12;html=1;rounded=0;" edge="1" parent="1" source="jpuQcXXQmPODVbKxkRPg-96" target="jpuQcXXQmPODVbKxkRPg-88">
          <mxGeometry width="160" relative="1" as="geometry">
            <mxPoint x="470" y="-20" as="sourcePoint" />
            <mxPoint x="630" y="-20" as="targetPoint" />
          </mxGeometry>
        </mxCell>
        <mxCell id="jpuQcXXQmPODVbKxkRPg-110" value="StorageStaff" style="swimlane;fontStyle=1;align=center;verticalAlign=top;childLayout=stackLayout;horizontal=1;startSize=26;horizontalStack=0;resizeParent=1;resizeParentMax=0;resizeLast=0;collapsible=1;marginBottom=0;whiteSpace=wrap;html=1;" vertex="1" parent="1">
          <mxGeometry x="710" y="230" width="180" height="112" as="geometry" />
        </mxCell>
        <mxCell id="jpuQcXXQmPODVbKxkRPg-117" value="" style="endArrow=block;dashed=1;endFill=0;endSize=12;html=1;rounded=0;" edge="1" parent="jpuQcXXQmPODVbKxkRPg-110" target="jpuQcXXQmPODVbKxkRPg-96">
          <mxGeometry width="160" relative="1" as="geometry">
            <mxPoint x="80" as="sourcePoint" />
            <mxPoint x="240" as="targetPoint" />
          </mxGeometry>
        </mxCell>
        <mxCell id="jpuQcXXQmPODVbKxkRPg-111" value="- _storage: Storage" style="text;strokeColor=none;fillColor=none;align=left;verticalAlign=top;spacingLeft=4;spacingRight=4;overflow=hidden;rotatable=0;points=[[0,0.5],[1,0.5]];portConstraint=eastwest;whiteSpace=wrap;html=1;" vertex="1" parent="jpuQcXXQmPODVbKxkRPg-110">
          <mxGeometry y="26" width="180" height="26" as="geometry" />
        </mxCell>
        <mxCell id="jpuQcXXQmPODVbKxkRPg-115" value="" style="line;strokeWidth=1;fillColor=none;align=left;verticalAlign=middle;spacingTop=-1;spacingLeft=3;spacingRight=3;rotatable=0;labelPosition=right;points=[];portConstraint=eastwest;strokeColor=inherit;" vertex="1" parent="jpuQcXXQmPODVbKxkRPg-110">
          <mxGeometry y="52" width="180" height="8" as="geometry" />
        </mxCell>
        <mxCell id="jpuQcXXQmPODVbKxkRPg-116" value="+&amp;lt;&amp;lt;create&amp;gt;&amp;gt; StorageStaff(name: string, storage: Storage)" style="text;strokeColor=none;fillColor=none;align=left;verticalAlign=top;spacingLeft=4;spacingRight=4;overflow=hidden;rotatable=0;points=[[0,0.5],[1,0.5]];portConstraint=eastwest;whiteSpace=wrap;html=1;" vertex="1" parent="jpuQcXXQmPODVbKxkRPg-110">
          <mxGeometry y="60" width="180" height="52" as="geometry" />
        </mxCell>
        <mxCell id="jpuQcXXQmPODVbKxkRPg-118" value="Manager" style="swimlane;fontStyle=1;align=center;verticalAlign=top;childLayout=stackLayout;horizontal=1;startSize=26;horizontalStack=0;resizeParent=1;resizeParentMax=0;resizeLast=0;collapsible=1;marginBottom=0;whiteSpace=wrap;html=1;" vertex="1" parent="1">
          <mxGeometry x="1050" y="-10" width="220" height="312" as="geometry" />
        </mxCell>
        <mxCell id="jpuQcXXQmPODVbKxkRPg-120" value="- _staff: List&amp;lt;IStaff&amp;gt;" style="text;strokeColor=none;fillColor=none;align=left;verticalAlign=top;spacingLeft=4;spacingRight=4;overflow=hidden;rotatable=0;points=[[0,0.5],[1,0.5]];portConstraint=eastwest;whiteSpace=wrap;html=1;" vertex="1" parent="jpuQcXXQmPODVbKxkRPg-118">
          <mxGeometry y="26" width="220" height="26" as="geometry" />
        </mxCell>
        <mxCell id="jpuQcXXQmPODVbKxkRPg-123" value="- _orders: Dictionary&amp;lt;IOffer, uint&amp;gt;" style="text;strokeColor=none;fillColor=none;align=left;verticalAlign=top;spacingLeft=4;spacingRight=4;overflow=hidden;rotatable=0;points=[[0,0.5],[1,0.5]];portConstraint=eastwest;whiteSpace=wrap;html=1;" vertex="1" parent="jpuQcXXQmPODVbKxkRPg-118">
          <mxGeometry y="52" width="220" height="26" as="geometry" />
        </mxCell>
        <mxCell id="jpuQcXXQmPODVbKxkRPg-121" value="" style="line;strokeWidth=1;fillColor=none;align=left;verticalAlign=middle;spacingTop=-1;spacingLeft=3;spacingRight=3;rotatable=0;labelPosition=right;points=[];portConstraint=eastwest;strokeColor=inherit;" vertex="1" parent="jpuQcXXQmPODVbKxkRPg-118">
          <mxGeometry y="78" width="220" height="8" as="geometry" />
        </mxCell>
        <mxCell id="jpuQcXXQmPODVbKxkRPg-122" value="+&amp;lt;&amp;lt;create&amp;gt;&amp;gt; Manager(name: string, staff: IEnumerable&amp;lt;IStaff&amp;gt;)" style="text;strokeColor=none;fillColor=none;align=left;verticalAlign=top;spacingLeft=4;spacingRight=4;overflow=hidden;rotatable=0;points=[[0,0.5],[1,0.5]];portConstraint=eastwest;whiteSpace=wrap;html=1;" vertex="1" parent="jpuQcXXQmPODVbKxkRPg-118">
          <mxGeometry y="86" width="220" height="44" as="geometry" />
        </mxCell>
        <mxCell id="jpuQcXXQmPODVbKxkRPg-124" value="&lt;u&gt;- SetStorageStaf(cooks: List&amp;lt;IStaff&amp;gt;, storageStaff: List&amp;lt;IStaff&amp;gt;): void&lt;/u&gt;" style="text;strokeColor=none;fillColor=none;align=left;verticalAlign=top;spacingLeft=4;spacingRight=4;overflow=hidden;rotatable=0;points=[[0,0.5],[1,0.5]];portConstraint=eastwest;whiteSpace=wrap;html=1;" vertex="1" parent="jpuQcXXQmPODVbKxkRPg-118">
          <mxGeometry y="130" width="220" height="42" as="geometry" />
        </mxCell>
        <mxCell id="jpuQcXXQmPODVbKxkRPg-126" value="+ AddOrder(order: Order): void" style="text;strokeColor=none;fillColor=none;align=left;verticalAlign=top;spacingLeft=4;spacingRight=4;overflow=hidden;rotatable=0;points=[[0,0.5],[1,0.5]];portConstraint=eastwest;whiteSpace=wrap;html=1;" vertex="1" parent="jpuQcXXQmPODVbKxkRPg-118">
          <mxGeometry y="172" width="220" height="28" as="geometry" />
        </mxCell>
        <mxCell id="jpuQcXXQmPODVbKxkRPg-127" value="- CheckSetWork(staff: Cook): void" style="text;strokeColor=none;fillColor=none;align=left;verticalAlign=top;spacingLeft=4;spacingRight=4;overflow=hidden;rotatable=0;points=[[0,0.5],[1,0.5]];portConstraint=eastwest;whiteSpace=wrap;html=1;" vertex="1" parent="jpuQcXXQmPODVbKxkRPg-118">
          <mxGeometry y="200" width="220" height="28" as="geometry" />
        </mxCell>
        <mxCell id="jpuQcXXQmPODVbKxkRPg-128" value="- GiveWork(offerType: OfferType): (Order, IOffer)?" style="text;strokeColor=none;fillColor=none;align=left;verticalAlign=top;spacingLeft=4;spacingRight=4;overflow=hidden;rotatable=0;points=[[0,0.5],[1,0.5]];portConstraint=eastwest;whiteSpace=wrap;html=1;" vertex="1" parent="jpuQcXXQmPODVbKxkRPg-118">
          <mxGeometry y="228" width="220" height="42" as="geometry" />
        </mxCell>
        <mxCell id="jpuQcXXQmPODVbKxkRPg-129" value="- GetWork(proocess: OfferType, staff: IStaff):void" style="text;strokeColor=none;fillColor=none;align=left;verticalAlign=top;spacingLeft=4;spacingRight=4;overflow=hidden;rotatable=0;points=[[0,0.5],[1,0.5]];portConstraint=eastwest;whiteSpace=wrap;html=1;" vertex="1" parent="jpuQcXXQmPODVbKxkRPg-118">
          <mxGeometry y="270" width="220" height="42" as="geometry" />
        </mxCell>
        <mxCell id="jpuQcXXQmPODVbKxkRPg-130" value="Cook" style="swimlane;fontStyle=1;align=center;verticalAlign=top;childLayout=stackLayout;horizontal=1;startSize=26;horizontalStack=0;resizeParent=1;resizeParentMax=0;resizeLast=0;collapsible=1;marginBottom=0;whiteSpace=wrap;html=1;" vertex="1" parent="1">
          <mxGeometry x="385" y="-180" width="220" height="580" as="geometry">
            <mxRectangle x="380" y="100" width="70" height="30" as="alternateBounds" />
          </mxGeometry>
        </mxCell>
        <mxCell id="jpuQcXXQmPODVbKxkRPg-132" value="- _staff: List&amp;lt;IStaff&amp;gt;" style="text;strokeColor=none;fillColor=none;align=left;verticalAlign=top;spacingLeft=4;spacingRight=4;overflow=hidden;rotatable=0;points=[[0,0.5],[1,0.5]];portConstraint=eastwest;whiteSpace=wrap;html=1;" vertex="1" parent="jpuQcXXQmPODVbKxkRPg-130">
          <mxGeometry y="26" width="220" height="26" as="geometry" />
        </mxCell>
        <mxCell id="jpuQcXXQmPODVbKxkRPg-133" value="- _orders: Dictionary&amp;lt;IOffer, uint&amp;gt;" style="text;strokeColor=none;fillColor=none;align=left;verticalAlign=top;spacingLeft=4;spacingRight=4;overflow=hidden;rotatable=0;points=[[0,0.5],[1,0.5]];portConstraint=eastwest;whiteSpace=wrap;html=1;" vertex="1" parent="jpuQcXXQmPODVbKxkRPg-130">
          <mxGeometry y="52" width="220" height="26" as="geometry" />
        </mxCell>
        <mxCell id="jpuQcXXQmPODVbKxkRPg-142" value="+ &amp;lt;&amp;lt;get&amp;gt;&amp;gt; PizzaPrepearingStage: PrepearingStage?" style="text;strokeColor=none;fillColor=none;align=left;verticalAlign=top;spacingLeft=4;spacingRight=4;overflow=hidden;rotatable=0;points=[[0,0.5],[1,0.5]];portConstraint=eastwest;whiteSpace=wrap;html=1;" vertex="1" parent="jpuQcXXQmPODVbKxkRPg-130">
          <mxGeometry y="78" width="220" height="42" as="geometry" />
        </mxCell>
        <mxCell id="jpuQcXXQmPODVbKxkRPg-143" value="- &amp;lt;&amp;lt;set&amp;gt;&amp;gt; PizzaPrepearingStage: PrepearingStage?" style="text;strokeColor=none;fillColor=none;align=left;verticalAlign=top;spacingLeft=4;spacingRight=4;overflow=hidden;rotatable=0;points=[[0,0.5],[1,0.5]];portConstraint=eastwest;whiteSpace=wrap;html=1;" vertex="1" parent="jpuQcXXQmPODVbKxkRPg-130">
          <mxGeometry y="120" width="220" height="40" as="geometry" />
        </mxCell>
        <mxCell id="jpuQcXXQmPODVbKxkRPg-144" value="- _orderId: Order" style="text;strokeColor=none;fillColor=none;align=left;verticalAlign=top;spacingLeft=4;spacingRight=4;overflow=hidden;rotatable=0;points=[[0,0.5],[1,0.5]];portConstraint=eastwest;whiteSpace=wrap;html=1;" vertex="1" parent="jpuQcXXQmPODVbKxkRPg-130">
          <mxGeometry y="160" width="220" height="26" as="geometry" />
        </mxCell>
        <mxCell id="jpuQcXXQmPODVbKxkRPg-145" value="- _offer: IOffer" style="text;strokeColor=none;fillColor=none;align=left;verticalAlign=top;spacingLeft=4;spacingRight=4;overflow=hidden;rotatable=0;points=[[0,0.5],[1,0.5]];portConstraint=eastwest;whiteSpace=wrap;html=1;" vertex="1" parent="jpuQcXXQmPODVbKxkRPg-130">
          <mxGeometry y="186" width="220" height="26" as="geometry" />
        </mxCell>
        <mxCell id="jpuQcXXQmPODVbKxkRPg-146" value="- _newxtWorkOnDish: IStaff" style="text;strokeColor=none;fillColor=none;align=left;verticalAlign=top;spacingLeft=4;spacingRight=4;overflow=hidden;rotatable=0;points=[[0,0.5],[1,0.5]];portConstraint=eastwest;whiteSpace=wrap;html=1;" vertex="1" parent="jpuQcXXQmPODVbKxkRPg-130">
          <mxGeometry y="212" width="220" height="26" as="geometry" />
        </mxCell>
        <mxCell id="jpuQcXXQmPODVbKxkRPg-147" value="+ &amp;lt;&amp;lt;get&amp;gt;&amp;gt; WorkDone: bool?" style="text;strokeColor=none;fillColor=none;align=left;verticalAlign=top;spacingLeft=4;spacingRight=4;overflow=hidden;rotatable=0;points=[[0,0.5],[1,0.5]];portConstraint=eastwest;whiteSpace=wrap;html=1;" vertex="1" parent="jpuQcXXQmPODVbKxkRPg-130">
          <mxGeometry y="238" width="220" height="32" as="geometry" />
        </mxCell>
        <mxCell id="jpuQcXXQmPODVbKxkRPg-148" value="- &amp;lt;&amp;lt;set&amp;gt;&amp;gt; WorkDone: bool?" style="text;strokeColor=none;fillColor=none;align=left;verticalAlign=top;spacingLeft=4;spacingRight=4;overflow=hidden;rotatable=0;points=[[0,0.5],[1,0.5]];portConstraint=eastwest;whiteSpace=wrap;html=1;" vertex="1" parent="jpuQcXXQmPODVbKxkRPg-130">
          <mxGeometry y="270" width="220" height="32" as="geometry" />
        </mxCell>
        <mxCell id="jpuQcXXQmPODVbKxkRPg-151" value="- isNextFree: bool" style="text;strokeColor=none;fillColor=none;align=left;verticalAlign=top;spacingLeft=4;spacingRight=4;overflow=hidden;rotatable=0;points=[[0,0.5],[1,0.5]];portConstraint=eastwest;whiteSpace=wrap;html=1;" vertex="1" parent="jpuQcXXQmPODVbKxkRPg-130">
          <mxGeometry y="302" width="220" height="32" as="geometry" />
        </mxCell>
        <mxCell id="jpuQcXXQmPODVbKxkRPg-149" value="+ &amp;lt;&amp;lt;get&amp;gt;&amp;gt; IsNextFree: bool" style="text;strokeColor=none;fillColor=none;align=left;verticalAlign=top;spacingLeft=4;spacingRight=4;overflow=hidden;rotatable=0;points=[[0,0.5],[1,0.5]];portConstraint=eastwest;whiteSpace=wrap;html=1;" vertex="1" parent="jpuQcXXQmPODVbKxkRPg-130">
          <mxGeometry y="334" width="220" height="32" as="geometry" />
        </mxCell>
        <mxCell id="jpuQcXXQmPODVbKxkRPg-150" value="- &amp;lt;&amp;lt;set&amp;gt;&amp;gt; IsNextFree: bool" style="text;strokeColor=none;fillColor=none;align=left;verticalAlign=top;spacingLeft=4;spacingRight=4;overflow=hidden;rotatable=0;points=[[0,0.5],[1,0.5]];portConstraint=eastwest;whiteSpace=wrap;html=1;" vertex="1" parent="jpuQcXXQmPODVbKxkRPg-130">
          <mxGeometry y="366" width="220" height="32" as="geometry" />
        </mxCell>
        <mxCell id="jpuQcXXQmPODVbKxkRPg-134" value="" style="line;strokeWidth=1;fillColor=none;align=left;verticalAlign=middle;spacingTop=-1;spacingLeft=3;spacingRight=3;rotatable=0;labelPosition=right;points=[];portConstraint=eastwest;strokeColor=inherit;" vertex="1" parent="jpuQcXXQmPODVbKxkRPg-130">
          <mxGeometry y="398" width="220" height="8" as="geometry" />
        </mxCell>
        <mxCell id="jpuQcXXQmPODVbKxkRPg-135" value="+&amp;lt;&amp;lt;create&amp;gt;&amp;gt; Cook(name: string" style="text;strokeColor=none;fillColor=none;align=left;verticalAlign=top;spacingLeft=4;spacingRight=4;overflow=hidden;rotatable=0;points=[[0,0.5],[1,0.5]];portConstraint=eastwest;whiteSpace=wrap;html=1;" vertex="1" parent="jpuQcXXQmPODVbKxkRPg-130">
          <mxGeometry y="406" width="220" height="34" as="geometry" />
        </mxCell>
        <mxCell id="jpuQcXXQmPODVbKxkRPg-137" value="+ Cooking(): void" style="text;strokeColor=none;fillColor=none;align=left;verticalAlign=top;spacingLeft=4;spacingRight=4;overflow=hidden;rotatable=0;points=[[0,0.5],[1,0.5]];portConstraint=eastwest;whiteSpace=wrap;html=1;" vertex="1" parent="jpuQcXXQmPODVbKxkRPg-130">
          <mxGeometry y="440" width="220" height="28" as="geometry" />
        </mxCell>
        <mxCell id="jpuQcXXQmPODVbKxkRPg-138" value="- SendDish(): void" style="text;strokeColor=none;fillColor=none;align=left;verticalAlign=top;spacingLeft=4;spacingRight=4;overflow=hidden;rotatable=0;points=[[0,0.5],[1,0.5]];portConstraint=eastwest;whiteSpace=wrap;html=1;" vertex="1" parent="jpuQcXXQmPODVbKxkRPg-130">
          <mxGeometry y="468" width="220" height="28" as="geometry" />
        </mxCell>
        <mxCell id="jpuQcXXQmPODVbKxkRPg-139" value="+ SetNextWorker(nextPerson: IStaff): void" style="text;strokeColor=none;fillColor=none;align=left;verticalAlign=top;spacingLeft=4;spacingRight=4;overflow=hidden;rotatable=0;points=[[0,0.5],[1,0.5]];portConstraint=eastwest;whiteSpace=wrap;html=1;" vertex="1" parent="jpuQcXXQmPODVbKxkRPg-130">
          <mxGeometry y="496" width="220" height="42" as="geometry" />
        </mxCell>
        <mxCell id="jpuQcXXQmPODVbKxkRPg-140" value="- GiveDishToNextPerson(proocess: OfferType, staff: IStaff):void" style="text;strokeColor=none;fillColor=none;align=left;verticalAlign=top;spacingLeft=4;spacingRight=4;overflow=hidden;rotatable=0;points=[[0,0.5],[1,0.5]];portConstraint=eastwest;whiteSpace=wrap;html=1;" vertex="1" parent="jpuQcXXQmPODVbKxkRPg-130">
          <mxGeometry y="538" width="220" height="42" as="geometry" />
        </mxCell>
        <mxCell id="jpuQcXXQmPODVbKxkRPg-141" value="" style="endArrow=block;dashed=1;endFill=0;endSize=12;html=1;rounded=0;" edge="1" parent="1" source="jpuQcXXQmPODVbKxkRPg-130" target="jpuQcXXQmPODVbKxkRPg-96">
          <mxGeometry width="160" relative="1" as="geometry">
            <mxPoint x="1140" y="-50" as="sourcePoint" />
            <mxPoint x="950" y="-13" as="targetPoint" />
          </mxGeometry>
        </mxCell>
        <mxCell id="jpuQcXXQmPODVbKxkRPg-152" value="&lt;p style=&quot;border-color: var(--border-color); margin: 4px 0px 0px;&quot;&gt;&lt;span style=&quot;border-color: var(--border-color);&quot;&gt;&amp;lt;&amp;lt;enumeration&amp;gt;&amp;gt;&lt;/span&gt;&lt;/p&gt;&lt;p style=&quot;border-color: var(--border-color); margin: 4px 0px 0px;&quot;&gt;&lt;span style=&quot;border-color: var(--border-color);&quot;&gt;&lt;b&gt;CookProcess&lt;/b&gt;&lt;/span&gt;&lt;/p&gt;" style="swimlane;fontStyle=0;childLayout=stackLayout;horizontal=1;startSize=50;fillColor=none;horizontalStack=0;resizeParent=1;resizeParentMax=0;resizeLast=0;collapsible=1;marginBottom=0;whiteSpace=wrap;html=1;" vertex="1" parent="1">
          <mxGeometry x="190" y="-204" width="140" height="180" as="geometry" />
        </mxCell>
        <mxCell id="jpuQcXXQmPODVbKxkRPg-153" value="None" style="text;strokeColor=none;fillColor=none;align=left;verticalAlign=top;spacingLeft=4;spacingRight=4;overflow=hidden;rotatable=0;points=[[0,0.5],[1,0.5]];portConstraint=eastwest;whiteSpace=wrap;html=1;" vertex="1" parent="jpuQcXXQmPODVbKxkRPg-152">
          <mxGeometry y="50" width="140" height="26" as="geometry" />
        </mxCell>
        <mxCell id="jpuQcXXQmPODVbKxkRPg-154" value="Drink" style="text;strokeColor=none;fillColor=none;align=left;verticalAlign=top;spacingLeft=4;spacingRight=4;overflow=hidden;rotatable=0;points=[[0,0.5],[1,0.5]];portConstraint=eastwest;whiteSpace=wrap;html=1;" vertex="1" parent="jpuQcXXQmPODVbKxkRPg-152">
          <mxGeometry y="76" width="140" height="26" as="geometry" />
        </mxCell>
        <mxCell id="jpuQcXXQmPODVbKxkRPg-155" value="Pizza" style="text;strokeColor=none;fillColor=none;align=left;verticalAlign=top;spacingLeft=4;spacingRight=4;overflow=hidden;rotatable=0;points=[[0,0.5],[1,0.5]];portConstraint=eastwest;whiteSpace=wrap;html=1;" vertex="1" parent="jpuQcXXQmPODVbKxkRPg-152">
          <mxGeometry y="102" width="140" height="26" as="geometry" />
        </mxCell>
        <mxCell id="jpuQcXXQmPODVbKxkRPg-156" value="Dessert" style="text;strokeColor=none;fillColor=none;align=left;verticalAlign=top;spacingLeft=4;spacingRight=4;overflow=hidden;rotatable=0;points=[[0,0.5],[1,0.5]];portConstraint=eastwest;whiteSpace=wrap;html=1;" vertex="1" parent="jpuQcXXQmPODVbKxkRPg-152">
          <mxGeometry y="128" width="140" height="26" as="geometry" />
        </mxCell>
        <mxCell id="jpuQcXXQmPODVbKxkRPg-157" value="OtherDish" style="text;strokeColor=none;fillColor=none;align=left;verticalAlign=top;spacingLeft=4;spacingRight=4;overflow=hidden;rotatable=0;points=[[0,0.5],[1,0.5]];portConstraint=eastwest;whiteSpace=wrap;html=1;" vertex="1" parent="jpuQcXXQmPODVbKxkRPg-152">
          <mxGeometry y="154" width="140" height="26" as="geometry" />
        </mxCell>
        <mxCell id="jpuQcXXQmPODVbKxkRPg-158" value="Cook" style="shape=umlFrame;whiteSpace=wrap;html=1;pointerEvents=0;" vertex="1" parent="1">
          <mxGeometry x="180" y="-240" width="160" height="230" as="geometry" />
        </mxCell>
        <mxCell id="jpuQcXXQmPODVbKxkRPg-165" value="Use" style="endArrow=open;endSize=12;dashed=1;html=1;rounded=0;" edge="1" parent="1" source="jpuQcXXQmPODVbKxkRPg-78" target="jpuQcXXQmPODVbKxkRPg-2">
          <mxGeometry width="160" relative="1" as="geometry">
            <mxPoint x="840" y="540" as="sourcePoint" />
            <mxPoint x="1000" y="540" as="targetPoint" />
          </mxGeometry>
        </mxCell>
        <mxCell id="jpuQcXXQmPODVbKxkRPg-167" value="1" style="endArrow=open;html=1;endSize=12;startArrow=diamondThin;startSize=14;startFill=1;edgeStyle=orthogonalEdgeStyle;align=left;verticalAlign=bottom;rounded=0;" edge="1" parent="1" source="jpuQcXXQmPODVbKxkRPg-78" target="jpuQcXXQmPODVbKxkRPg-69">
          <mxGeometry x="-0.92" y="-10" relative="1" as="geometry">
            <mxPoint x="1260" y="620" as="sourcePoint" />
            <mxPoint x="1420" y="620" as="targetPoint" />
            <Array as="points">
              <mxPoint x="1360" y="575" />
              <mxPoint x="1530" y="575" />
            </Array>
            <mxPoint as="offset" />
          </mxGeometry>
        </mxCell>
        <mxCell id="jpuQcXXQmPODVbKxkRPg-168" value="1" style="endArrow=open;html=1;endSize=12;startArrow=diamondThin;startSize=14;startFill=0;edgeStyle=orthogonalEdgeStyle;align=left;verticalAlign=bottom;rounded=0;" edge="1" parent="1" source="jpuQcXXQmPODVbKxkRPg-2" target="jpuQcXXQmPODVbKxkRPg-8">
          <mxGeometry x="-1" y="3" relative="1" as="geometry">
            <mxPoint x="200" y="520" as="sourcePoint" />
            <mxPoint x="360" y="520" as="targetPoint" />
          </mxGeometry>
        </mxCell>
        <mxCell id="jpuQcXXQmPODVbKxkRPg-171" value="&lt;p style=&quot;border-color: var(--border-color); margin: 4px 0px 0px;&quot;&gt;&lt;span style=&quot;border-color: var(--border-color);&quot;&gt;&amp;lt;&amp;lt;enumeration&amp;gt;&amp;gt;&lt;/span&gt;&lt;/p&gt;&lt;p style=&quot;border-color: var(--border-color); margin: 4px 0px 0px;&quot;&gt;&lt;span style=&quot;border-color: var(--border-color);&quot;&gt;&lt;b&gt;OfferType&lt;/b&gt;&lt;/span&gt;&lt;/p&gt;" style="swimlane;fontStyle=0;childLayout=stackLayout;horizontal=1;startSize=50;fillColor=none;horizontalStack=0;resizeParent=1;resizeParentMax=0;resizeLast=0;collapsible=1;marginBottom=0;whiteSpace=wrap;html=1;" vertex="1" parent="1">
          <mxGeometry x="1050" y="-294" width="140" height="180" as="geometry" />
        </mxCell>
        <mxCell id="jpuQcXXQmPODVbKxkRPg-172" value="None" style="text;strokeColor=none;fillColor=none;align=left;verticalAlign=top;spacingLeft=4;spacingRight=4;overflow=hidden;rotatable=0;points=[[0,0.5],[1,0.5]];portConstraint=eastwest;whiteSpace=wrap;html=1;" vertex="1" parent="jpuQcXXQmPODVbKxkRPg-171">
          <mxGeometry y="50" width="140" height="26" as="geometry" />
        </mxCell>
        <mxCell id="jpuQcXXQmPODVbKxkRPg-173" value="Drink" style="text;strokeColor=none;fillColor=none;align=left;verticalAlign=top;spacingLeft=4;spacingRight=4;overflow=hidden;rotatable=0;points=[[0,0.5],[1,0.5]];portConstraint=eastwest;whiteSpace=wrap;html=1;" vertex="1" parent="jpuQcXXQmPODVbKxkRPg-171">
          <mxGeometry y="76" width="140" height="26" as="geometry" />
        </mxCell>
        <mxCell id="jpuQcXXQmPODVbKxkRPg-174" value="Pizza" style="text;strokeColor=none;fillColor=none;align=left;verticalAlign=top;spacingLeft=4;spacingRight=4;overflow=hidden;rotatable=0;points=[[0,0.5],[1,0.5]];portConstraint=eastwest;whiteSpace=wrap;html=1;" vertex="1" parent="jpuQcXXQmPODVbKxkRPg-171">
          <mxGeometry y="102" width="140" height="26" as="geometry" />
        </mxCell>
        <mxCell id="jpuQcXXQmPODVbKxkRPg-175" value="Dessert" style="text;strokeColor=none;fillColor=none;align=left;verticalAlign=top;spacingLeft=4;spacingRight=4;overflow=hidden;rotatable=0;points=[[0,0.5],[1,0.5]];portConstraint=eastwest;whiteSpace=wrap;html=1;" vertex="1" parent="jpuQcXXQmPODVbKxkRPg-171">
          <mxGeometry y="128" width="140" height="26" as="geometry" />
        </mxCell>
        <mxCell id="jpuQcXXQmPODVbKxkRPg-176" value="OtherDish" style="text;strokeColor=none;fillColor=none;align=left;verticalAlign=top;spacingLeft=4;spacingRight=4;overflow=hidden;rotatable=0;points=[[0,0.5],[1,0.5]];portConstraint=eastwest;whiteSpace=wrap;html=1;" vertex="1" parent="jpuQcXXQmPODVbKxkRPg-171">
          <mxGeometry y="154" width="140" height="26" as="geometry" />
        </mxCell>
        <mxCell id="jpuQcXXQmPODVbKxkRPg-177" value="Menu" style="shape=umlFrame;whiteSpace=wrap;html=1;pointerEvents=0;" vertex="1" parent="1">
          <mxGeometry x="1040" y="-330" width="160" height="230" as="geometry" />
        </mxCell>
        <mxCell id="jpuQcXXQmPODVbKxkRPg-119" value="" style="endArrow=block;dashed=1;endFill=0;endSize=12;html=1;rounded=0;" edge="1" parent="1" source="jpuQcXXQmPODVbKxkRPg-118" target="jpuQcXXQmPODVbKxkRPg-88">
          <mxGeometry width="160" relative="1" as="geometry">
            <mxPoint x="1135" y="-20" as="sourcePoint" />
            <mxPoint x="1295" y="-20" as="targetPoint" />
          </mxGeometry>
        </mxCell>
        <mxCell id="jpuQcXXQmPODVbKxkRPg-178" value="Use" style="endArrow=open;endSize=12;dashed=1;html=1;rounded=0;" edge="1" parent="1" source="jpuQcXXQmPODVbKxkRPg-96" target="jpuQcXXQmPODVbKxkRPg-177">
          <mxGeometry width="160" relative="1" as="geometry">
            <mxPoint x="910" y="-120" as="sourcePoint" />
            <mxPoint x="1070" y="-120" as="targetPoint" />
          </mxGeometry>
        </mxCell>
        <mxCell id="jpuQcXXQmPODVbKxkRPg-179" value="1" style="endArrow=open;html=1;endSize=12;startArrow=diamondThin;startSize=14;startFill=1;edgeStyle=orthogonalEdgeStyle;align=left;verticalAlign=bottom;rounded=0;" edge="1" parent="1" source="jpuQcXXQmPODVbKxkRPg-78" target="jpuQcXXQmPODVbKxkRPg-118">
          <mxGeometry x="-0.9263" y="-25" relative="1" as="geometry">
            <mxPoint x="1450" y="610" as="sourcePoint" />
            <mxPoint x="1610" y="610" as="targetPoint" />
            <Array as="points">
              <mxPoint x="1255" y="441" />
              <mxPoint x="1150" y="441" />
            </Array>
            <mxPoint as="offset" />
          </mxGeometry>
        </mxCell>
        <mxCell id="jpuQcXXQmPODVbKxkRPg-182" value="Use" style="endArrow=open;endSize=12;dashed=1;html=1;rounded=0;" edge="1" parent="1" source="jpuQcXXQmPODVbKxkRPg-69" target="jpuQcXXQmPODVbKxkRPg-2">
          <mxGeometry width="160" relative="1" as="geometry">
            <mxPoint x="1200" y="340" as="sourcePoint" />
            <mxPoint x="1360" y="340" as="targetPoint" />
            <Array as="points">
              <mxPoint x="1170" y="481" />
            </Array>
          </mxGeometry>
        </mxCell>
        <mxCell id="jpuQcXXQmPODVbKxkRPg-183" value="Use" style="endArrow=open;endSize=12;dashed=1;html=1;rounded=0;" edge="1" parent="1" source="jpuQcXXQmPODVbKxkRPg-96">
          <mxGeometry width="160" relative="1" as="geometry">
            <mxPoint x="770" y="330" as="sourcePoint" />
            <mxPoint x="780" y="410" as="targetPoint" />
            <Array as="points">
              <mxPoint x="650" y="360" />
            </Array>
          </mxGeometry>
        </mxCell>
        <mxCell id="jpuQcXXQmPODVbKxkRPg-184" value="*" style="endArrow=open;html=1;endSize=12;startArrow=diamondThin;startSize=14;startFill=0;edgeStyle=orthogonalEdgeStyle;align=left;verticalAlign=bottom;rounded=0;" edge="1" parent="1" source="jpuQcXXQmPODVbKxkRPg-110" target="jpuQcXXQmPODVbKxkRPg-69">
          <mxGeometry x="-0.9268" y="-20" relative="1" as="geometry">
            <mxPoint x="730" y="350" as="sourcePoint" />
            <mxPoint x="890" y="350" as="targetPoint" />
            <Array as="points">
              <mxPoint x="985" y="330" />
              <mxPoint x="985" y="360" />
            </Array>
            <mxPoint as="offset" />
          </mxGeometry>
        </mxCell>
        <mxCell id="jpuQcXXQmPODVbKxkRPg-185" value="1" style="text;align=center;fontStyle=1;verticalAlign=middle;spacingLeft=3;spacingRight=3;strokeColor=none;rotatable=0;points=[[0,0.5],[1,0.5]];portConstraint=eastwest;html=1;" vertex="1" parent="1">
          <mxGeometry x="1235" y="336" width="80" height="26" as="geometry" />
        </mxCell>
        <mxCell id="jpuQcXXQmPODVbKxkRPg-186" value="1" style="text;align=center;fontStyle=1;verticalAlign=middle;spacingLeft=3;spacingRight=3;strokeColor=none;rotatable=0;points=[[0,0.5],[1,0.5]];portConstraint=eastwest;html=1;" vertex="1" parent="1">
          <mxGeometry x="1450" y="490" width="80" height="26" as="geometry" />
        </mxCell>
        <mxCell id="jpuQcXXQmPODVbKxkRPg-187" value="*" style="text;align=center;fontStyle=1;verticalAlign=middle;spacingLeft=3;spacingRight=3;strokeColor=none;rotatable=0;points=[[0,0.5],[1,0.5]];portConstraint=eastwest;html=1;" vertex="1" parent="1">
          <mxGeometry x="840" y="20" width="80" height="26" as="geometry" />
        </mxCell>
        <mxCell id="jpuQcXXQmPODVbKxkRPg-188" value="Use" style="endArrow=open;endSize=12;dashed=1;html=1;rounded=0;" edge="1" parent="1" source="jpuQcXXQmPODVbKxkRPg-52" target="jpuQcXXQmPODVbKxkRPg-8">
          <mxGeometry width="160" relative="1" as="geometry">
            <mxPoint x="120" y="460" as="sourcePoint" />
            <mxPoint x="280" y="460" as="targetPoint" />
          </mxGeometry>
        </mxCell>
        <mxCell id="jpuQcXXQmPODVbKxkRPg-190" value="1" style="text;align=center;fontStyle=1;verticalAlign=middle;spacingLeft=3;spacingRight=3;strokeColor=none;rotatable=0;points=[[0,0.5],[1,0.5]];portConstraint=eastwest;html=1;" vertex="1" parent="1">
          <mxGeometry x="1140" y="310" width="80" height="26" as="geometry" />
        </mxCell>
        <mxCell id="jpuQcXXQmPODVbKxkRPg-192" value="" style="endArrow=open;endFill=1;endSize=12;html=1;rounded=0;" edge="1" parent="1" source="jpuQcXXQmPODVbKxkRPg-118" target="jpuQcXXQmPODVbKxkRPg-130">
          <mxGeometry width="160" relative="1" as="geometry">
            <mxPoint x="940" y="322.5" as="sourcePoint" />
            <mxPoint x="1100" y="322.5" as="targetPoint" />
            <Array as="points">
              <mxPoint x="760" y="-150" />
              <mxPoint x="660" y="-150" />
            </Array>
          </mxGeometry>
        </mxCell>
      </root>
    </mxGraphModel>
  </diagram>
</mxfile>
